<?xml version="1.0" encoding="UTF-8"?>
<!-- Generator: visioncortex VTracer 0.6.12 -->
<svg version="1.1" xmlns="http://www.w3.org/2000/svg" width="789" height="703">
<path d="M0 0 C1.01175293 0.48299561 2.02350586 0.96599121 3.06591797 1.46362305 C21.2734384 10.33072494 21.2734384 10.33072494 23.5625 14.75 C23.8984375 16.6171875 23.8984375 16.6171875 23.9375 18.625 C23.96585938 19.28242188 23.99421875 19.93984375 24.0234375 20.6171875 C22.81702172 26.19941646 17.90158356 29.10937038 13.42260742 32.04829407 C12.60767822 32.57118515 11.79274902 33.09407623 10.953125 33.6328125 C10.52132935 33.9148629 10.52132935 33.9148629 8.33618164 35.34220886 C6.47142304 36.55928722 4.60426739 37.77269918 2.73498535 38.9828186 C-1.71998484 41.86721688 -6.16075431 44.77326935 -10.60166168 47.6792469 C-12.13415509 48.68177031 -13.66726354 49.68334859 -15.20037842 50.68492126 C-25.93505825 57.70391822 -36.56757982 64.87115204 -47.1875 72.0625 C-48.06660034 72.65734192 -48.94570068 73.25218384 -49.85144043 73.86505127 C-54.71574936 77.15666392 -59.57808309 80.45116946 -64.4375 83.75 C-63.62563232 83.48598389 -62.81376465 83.22196777 -61.97729492 82.94995117 C-42.29136288 76.55006365 -22.59716658 70.17554233 -2.89683056 63.82013416 C0.30822872 62.78616599 3.51309989 61.75162559 6.71743774 60.71542358 C14.42839487 58.22239432 22.14434729 55.74573303 29.86729431 53.29009247 C31.57144241 52.74715095 33.27462918 52.20127759 34.97766113 51.65484619 C38.18160039 50.62806933 41.39112552 49.61956842 44.6015625 48.61328125 C45.554935 48.30633835 46.5083075 47.99939545 47.49057007 47.68315125 C48.36718292 47.41170792 49.24379578 47.14026459 50.14697266 46.8605957 C50.90740875 46.62057327 51.66784485 46.38055084 52.45132446 46.133255 C55.62534395 45.55705524 57.71172163 46.18847022 60.37426758 47.94580078 C60.97907959 48.44063965 61.5838916 48.93547852 62.20703125 49.4453125 C62.88443359 49.99703125 63.56183594 50.54875 64.25976562 51.1171875 C64.95779297 51.69726562 65.65582031 52.27734375 66.375 52.875 C66.71821289 53.1534375 66.71821289 53.1534375 68.45507812 54.5625 C72.5570156 57.93097846 76.38415684 61.45645871 80.07495117 65.27124023 C81.5625 66.75 81.5625 66.75 84.0625 68.6875 C86.85924322 70.99481316 89.08654983 73.49098076 91.4296875 76.25 C93.01624237 78.10969802 94.62176173 79.93495274 96.2578125 81.75 C133.23432925 123.18188897 148.28234309 175.032163 145.5625 229.75 C145.08667302 236.54207883 144.07603791 243.11635404 142.5625 249.75 C142.47935547 250.1313208 142.47935547 250.1313208 142.05859375 252.06103516 C134.65546992 285.25856172 118.74385021 316.99499747 95.90771484 342.24829102 C94.93732814 343.33156662 93.98096745 344.42746407 93.03369141 345.53100586 C88.20023365 351.15691443 83.06109582 356.45216689 77.8125 361.6875 C77.36886108 362.13053467 76.92522217 362.57356934 76.46813965 363.0300293 C70.12239191 369.35235256 63.74337516 375.36434363 56.5625 380.75 C55.37935202 381.67207937 54.19713108 382.59534896 53.015625 383.51953125 C-11.27021316 433.31636786 -94.82546772 455.60791885 -175.4375 453.75 C-175.84460205 453.74105713 -175.84460205 453.74105713 -177.90478516 453.69580078 C-231.82237248 452.33268776 -285.58970871 440.90344296 -334.4375 417.75 C-334.89374756 417.53625732 -334.89374756 417.53625732 -337.20263672 416.45458984 C-366.57999211 402.59521522 -394.88205023 384.34380807 -417.4375 360.75 C-419.84245472 358.32542901 -422.25552669 355.92358887 -424.7265625 353.56640625 C-456.50229964 322.90653948 -476.78689205 280.06467862 -483.4375 236.75 C-483.5420752 236.069375 -483.64665039 235.38875 -483.75439453 234.6875 C-490.69601155 182.03552122 -473.19023878 129.08930389 -441.38647461 87.34863281 C-435.780746 80.12702504 -429.77674348 73.33183096 -423.4375 66.75 C-422.80537598 66.09064453 -422.17325195 65.43128906 -421.52197266 64.75195312 C-412.90152568 55.80739855 -404.17891566 47.39137223 -394.16455078 40.02392578 C-392.39652089 38.71977255 -390.6488778 37.39136158 -388.90234375 36.05859375 C-326.91795279 -10.83314569 -247.88837039 -35.11039822 0 0 Z M-235.4375 -16.25 C-236.57977051 -16.08371094 -237.72204102 -15.91742188 -238.89892578 -15.74609375 C-299.77702578 -6.70818785 -358.25551869 17.54302485 -404.4375 58.75 C-404.99695313 59.24773926 -405.55640625 59.74547852 -406.1328125 60.25830078 C-412.65967501 66.09552563 -418.85772162 71.98547415 -424.4375 78.75 C-425.14648438 79.54792969 -425.85546875 80.34585938 -426.5859375 81.16796875 C-456.08769804 114.69519176 -473.93357875 157.90169014 -473.8125 202.625 C-473.81195618 203.38635254 -473.81141235 204.14770508 -473.81085205 204.93212891 C-473.67203716 247.46056803 -457.89263406 286.70129433 -431.4375 319.75 C-431.01065918 320.29253418 -430.58381836 320.83506836 -430.14404297 321.39404297 C-418.73816335 335.82295163 -405.17725508 349.73995816 -390.4375 360.75 C-390.09750977 361.00934326 -390.09750977 361.00934326 -388.37695312 362.32177734 C-378.70390895 369.69572712 -368.95791819 376.6814345 -358.359375 382.66259766 C-356.32344314 383.8145337 -354.30269265 384.99081407 -352.28125 386.16796875 C-308.25332283 411.52651343 -257.84418223 425.15607996 -207.4375 429.75 C-206.41205078 429.8442627 -205.38660156 429.93852539 -204.33007812 430.03564453 C-193.91532339 430.88828775 -183.50828025 430.99321389 -173.0625 431 C-172.1213031 431.00067474 -171.1801062 431.00134949 -170.21038818 431.00204468 C-113.28720181 430.93774031 -56.54843817 419.21503926 -5.4375 393.75 C-4.51904297 393.29625 -3.60058594 392.8425 -2.65429688 392.375 C21.01469973 380.59904692 43.36059394 365.99838675 62.5625 347.75 C63.9519001 346.53427491 65.34731591 345.32537389 66.75 344.125 C74.03256232 337.76015895 80.38656914 330.82956671 86.37841797 323.24609375 C87.17259108 322.24265193 87.97116027 321.24267488 88.77392578 320.24609375 C99.56242282 306.84934157 108.44800249 292.41256627 115.5625 276.75 C115.90023437 276.00830566 116.23796875 275.26661133 116.5859375 274.50244141 C135.59869183 231.92923917 136.79412585 183.20146297 120.30078125 139.59765625 C109.8250986 113.12594519 94.9624875 90.20400804 75.81640625 69.2265625 C74.2882804 67.54747795 72.77564142 65.85419177 71.27734375 64.1484375 C67.76775805 60.16328186 64.21062717 56.2377017 60.375 52.5625 C59.78332031 51.99144531 59.19164062 51.42039062 58.58203125 50.83203125 C55.73210507 49.30508821 53.56328769 49.9614429 50.5625 50.75 C47.41787514 51.8386188 44.35183589 53.09953446 41.27734375 54.37109375 C40.36525146 54.74236893 39.45315918 55.1136441 38.51342773 55.49617004 C36.54040065 56.30006697 34.56850467 57.10674441 32.59762573 57.91589355 C27.83447565 59.87121446 23.06444818 61.80960542 18.29541206 63.75051498 C16.6460712 64.42211348 14.99705639 65.09450671 13.34812927 65.76712036 C2.41744058 70.22479943 -8.53764374 74.62084156 -19.5 79 C-20.43033051 79.37177368 -21.36066101 79.74354736 -22.31918335 80.12658691 C-38.96018839 86.77497708 -55.6070622 93.40879608 -72.29193115 99.94645691 C-76.44880699 101.57533693 -80.60330452 103.2099397 -84.75439453 104.85351562 C-89.25544493 106.63524851 -93.76112722 108.40477983 -98.27008057 110.16641235 C-99.98812577 110.83985918 -101.70460183 111.51732479 -103.41937256 112.19906616 C-105.79490334 113.14259453 -108.17583336 114.07100347 -110.55859375 114.99609375 C-111.2547731 115.27652527 -111.95095245 115.55695679 -112.66822815 115.84588623 C-117.1250432 117.55315576 -120.65827431 118.16158479 -125.4375 117.75 C-127.4375 116.1875 -127.4375 116.1875 -128.4375 113.75 C-128.49317892 107.87587423 -128.49317892 107.87587423 -126.03125 105.25024414 C-124.05871812 103.74082151 -122.03498677 102.39292686 -119.9375 101.0625 C-118.37461897 100.01749671 -116.8121296 98.97190748 -115.25 97.92578125 C-114.44820313 97.39936035 -113.64640625 96.87293945 -112.8203125 96.33056641 C-109.13429016 93.88555528 -105.53952547 91.31638531 -101.9375 88.75 C-100.51740128 87.74672429 -99.09682695 86.74412145 -97.67578125 85.7421875 C-94.88075157 83.76930088 -92.08653618 81.79526903 -89.29296875 79.8203125 C-79.20689121 72.69166397 -69.09458975 65.60106428 -58.97265625 58.5234375 C-56.4913408 56.78766367 -54.01109426 55.05037486 -51.53125 53.3125 C-42.9465913 47.29691031 -34.35593125 41.28993122 -25.75454712 35.29827881 C-24.29910653 34.28421451 -22.84424521 33.26931897 -21.3894043 32.25439453 C-15.78268079 28.35168012 -10.13843322 24.51382498 -4.4375 20.75 C-6.69284753 18.23154361 -8.79680071 16.93949569 -11.8828125 15.5859375 C-12.78136963 15.19067871 -13.67992676 14.79541992 -14.60571289 14.38818359 C-15.58145264 13.97133301 -16.55719238 13.55448242 -17.5625 13.125 C-18.58657959 12.68623535 -19.61065918 12.2474707 -20.66577148 11.79541016 C-59.40124449 -4.57467577 -99.69334663 -13.77126209 -141.4375 -18.25 C-142.41146729 -18.35602539 -143.38543457 -18.46205078 -144.38891602 -18.57128906 C-155.84797973 -19.63211985 -167.37738934 -19.49386572 -178.875 -19.5 C-180.0109964 -19.50067474 -181.1469928 -19.50134949 -182.31741333 -19.50204468 C-200.22282029 -19.48517584 -217.72193011 -18.89964213 -235.4375 -16.25 Z " fill="#231815" transform="translate(575.4375,144.25)"/>
</svg>
