<?xml version="1.0" encoding="UTF-8"?>
<!-- Generator: visioncortex VTracer 0.6.12 -->
<svg version="1.1" xmlns="http://www.w3.org/2000/svg" width="789" height="702">
<path d="M0 0 C0.7798526 0.00093658 1.5597052 0.00187317 2.3631897 0.00283813 C66.80860724 0.16893668 131.49561665 14.98765673 187.6875 47.1875 C187.6875 48.1775 187.6875 49.1675 187.6875 50.1875 C186.20410156 51.51171875 186.20410156 51.51171875 184.078125 52.875 C183.27560303 53.39860107 182.47308105 53.92220215 181.64624023 54.46166992 C180.75235596 55.03119385 179.85847168 55.60071777 178.9375 56.1875 C177.5012068 57.12327616 176.06495366 58.05911625 174.63011169 58.99711609 C173.6039811 59.66763592 172.57707223 60.33696596 171.54945374 61.00520325 C165.94293203 64.65520078 160.41102709 68.41297805 154.88180542 72.1786499 C153.1030542 73.38994466 151.32328914 74.59973546 149.54321289 75.80908203 C147.1242172 77.45252949 144.70551829 79.09641186 142.28710938 80.74072266 C136.48548333 84.68486547 130.68018657 88.62360053 124.875 92.5625 C124.30828583 92.94704346 123.74157166 93.33158691 123.15768433 93.7277832 C119.00123115 96.54809417 114.84446154 99.36793838 110.6875 102.1875 C110.02848694 102.63450256 109.36947388 103.08150513 108.69049072 103.54205322 C104.531559 106.36288421 100.37217992 109.18305402 96.21231079 112.00250244 C94.88764003 112.90041715 93.56307127 113.79848238 92.23861694 114.69671631 C84.07900626 120.23021674 75.89983175 125.7325174 67.6875 131.1875 C78.05299967 128.68659428 87.98075266 124.98061719 98 121.375 C100.97525685 120.30964923 103.95104457 119.24578928 106.92681885 118.18188477 C109.06416172 117.41756703 111.2013235 116.65274273 113.33831787 115.88745117 C121.90850961 112.81860891 130.48614367 109.77102776 139.06640625 106.73046875 C140.39084583 106.26098724 141.71528329 105.79149971 143.03971863 105.32200623 C149.04713957 103.19274429 155.05505353 101.06488865 161.06402874 98.94001675 C164.33992799 97.78135957 167.61541524 96.62154218 170.890625 95.4609375 C171.52767176 95.23519609 172.16471851 95.00945469 172.82106972 94.77687263 C181.29196909 91.77285008 189.74065166 88.71547383 198.171875 85.6015625 C200.01507554 84.92447535 201.85833481 84.24754806 203.70166016 83.57080078 C207.01509323 82.35391808 210.32057984 81.11818316 213.62255859 79.87060547 C215.06320175 79.34007346 216.50410166 78.81023793 217.9453125 78.28125 C218.5807196 78.03460602 219.21612671 77.78796204 219.87078857 77.53384399 C222.59124416 76.55224842 224.18622413 76.01759139 226.97583008 76.96313477 C227.25825562 77.16515503 227.25825562 77.16515503 228.6875 78.1875 C229.39003906 78.68121094 230.09257813 79.17492187 230.81640625 79.68359375 C244.82673817 90.86037539 257.94136664 104.01754182 268.47998047 118.52685547 C269.71953812 120.23156051 270.98506996 121.91466259 272.25390625 123.59765625 C302.31205957 163.9683143 315.71099544 214.27679646 309.16601562 264.14599609 C302.67360329 308.39879337 280.41755473 347.30901594 249.6875 379.1875 C249.42042236 379.46553467 249.42042236 379.46553467 248.06884766 380.87255859 C241.42922546 387.74895781 234.66883103 394.21718891 227.10742188 400.08398438 C225.60952146 401.24810231 224.12508182 402.42817418 222.640625 403.609375 C167.47634595 447.16772913 92.7477064 473.12916891 15.84765625 474.390625 C14.64310671 474.39764488 13.43855757 474.40473172 12.23400879 474.41188049 C8.40600044 474.43128512 4.57805257 474.43631413 0.75 474.4375 C0.09864452 474.43794186 -0.55271095 474.43838371 -1.22380447 474.43883896 C-20.40550678 474.44566791 -39.32524852 474.28554724 -58.3125 471.1875 C-59.40723633 471.01589355 -60.50197266 470.84428711 -61.62988281 470.66748047 C-126.57948546 460.25805547 -188.93808171 434.99867869 -237.96875 390.3125 C-240.11942711 388.36255276 -242.30074971 386.45723871 -244.5 384.5625 C-251.41411197 378.50573792 -257.35202465 371.92788148 -263.06933594 364.73828125 C-264.34599612 363.14571537 -265.64407594 361.57252582 -266.9453125 360 C-285.20447541 337.68615661 -298.62105551 310.80533149 -305.6875 282.875 C-305.9261377 281.93398438 -306.16477539 280.99296875 -306.41064453 280.0234375 C-309.68645971 266.32328203 -310.72454591 252.80218688 -310.6875 238.75 C-310.68695618 237.96680389 -310.68641235 237.18360779 -310.68585205 236.37667847 C-310.64226315 222.64042044 -309.50282752 209.59420967 -306.3125 196.1875 C-306.10351074 195.29611328 -305.89452148 194.40472656 -305.67919922 193.48632812 C-297.4119921 159.37713201 -279.45714618 128.23398815 -255.6015625 102.6640625 C-253.66666784 100.57067817 -251.82673094 98.43667793 -250 96.25 C-241.01765005 85.96646851 -230.21476977 77.33421966 -219.3125 69.1875 C-218.68956055 68.71876465 -218.06662109 68.2500293 -217.42480469 67.76708984 C-155.45356131 21.50002967 -76.70564657 -0.1208516 0 0 Z M-252.29296875 102.2265625 C-254.02637294 104.16968719 -255.66958504 106.16702073 -257.3125 108.1875 C-258.28439786 109.33657938 -259.25714191 110.48494328 -260.23046875 111.6328125 C-289.62139703 146.62807338 -307.85808562 189.28245269 -307.625 235.3125 C-307.62284485 236.08096252 -307.6206897 236.84942505 -307.61846924 237.64117432 C-307.39284429 287.88771981 -285.88996151 334.72470628 -251.49511719 370.91943359 C-249.80928268 372.72707696 -248.2202403 374.61241928 -246.625 376.5 C-243.86092951 379.67284148 -240.92376069 382.44587459 -237.7109375 385.16015625 C-235.87931173 386.70838716 -234.07957051 388.27650928 -232.2890625 389.87109375 C-189.0258799 428.13212935 -134.34898583 450.66283372 -78.3125 462.1875 C-77.80976563 462.29175293 -77.80976563 462.29175293 -75.265625 462.81933594 C-68.64269516 464.16066018 -62.00476373 465.25475022 -55.3125 466.1875 C-54.25305176 466.33703125 -53.19360352 466.4865625 -52.10205078 466.640625 C-17.0824277 471.3362196 19.72575864 471.39846189 54.6875 466.1875 C55.26147522 466.10264343 55.83545044 466.01778687 56.42681885 465.93035889 C92.52863223 460.54764312 127.60123624 450.7038168 160.6875 435.1875 C161.55987305 434.77886719 162.43224609 434.37023437 163.33105469 433.94921875 C189.36489729 421.62203285 213.11326695 405.7093734 234.37109375 386.28125 C236.35598405 384.48715017 238.38170011 382.77348419 240.4375 381.0625 C251.45361698 371.42617949 261.05998271 359.97392442 269.6875 348.1875 C270.09919434 347.62691895 270.51088867 347.06633789 270.93505859 346.48876953 C288.32218822 322.46354368 299.24363907 295.22336574 304.6875 266.1875 C304.81882324 265.51154785 304.95014648 264.8355957 305.08544922 264.13916016 C313.74205668 217.65087128 299.515589 168.00044527 273.2722168 129.55273438 C267.54297701 121.35629189 261.31412326 113.66900629 254.6875 106.1875 C254.30787109 105.75244141 254.30787109 105.75244141 252.38671875 103.55078125 C247.13967196 97.61406934 241.64993079 91.95696431 235.95703125 86.45068359 C234.78464332 85.2841576 233.67034063 84.06002371 232.5625 82.83203125 C230.64745505 80.83590577 229.13426732 79.46939833 226.6875 78.1875 C224.49285889 78.45199585 224.49285889 78.45199585 222.11230469 79.28271484 C221.22965942 79.58216003 220.34701416 79.88160522 219.43762207 80.19012451 C218.53008179 80.51925842 217.6225415 80.84839233 216.6875 81.1875 C215.83571167 81.48424622 214.98392334 81.78099243 214.10632324 82.08673096 C211.37975958 83.04792826 208.6659787 84.03985022 205.953125 85.0390625 C204.93871841 85.41010605 203.92431183 85.7811496 202.87916565 86.16343689 C200.13552998 87.16775975 197.39288369 88.17469781 194.65069962 89.18297195 C192.33309636 90.03459265 190.0146857 90.88400337 187.69627476 91.73342228 C170.41469905 98.06529401 153.14828416 104.43830879 135.88769531 110.82714844 C121.66169156 116.09245242 107.42702063 121.33386388 93.1875 126.5625 C92.67222748 126.75170517 92.67222748 126.75170517 90.06463623 127.709198 C83.27261375 130.20293652 76.48017399 132.69553673 69.6875 135.1875 C68.83565125 135.50001709 67.98380249 135.81253418 67.10614014 136.13452148 C57.96720882 139.4871937 48.82778133 142.83850995 39.6875 146.1875 C44.15593207 142.4922775 48.86934909 139.18865968 53.625 135.875 C54.49672852 135.26615967 55.36845703 134.65731934 56.26660156 134.0300293 C64.63739727 128.19712425 73.06666005 122.45100555 81.50390625 116.71484375 C85.970611 113.67800684 90.42654421 110.62599008 94.875 107.5625 C102.99330773 101.97320203 111.12810479 96.40814848 119.26416016 90.84472656 C123.23912332 88.12640599 127.21327548 85.40690031 131.1875 82.6875 C132.77082934 81.60416083 134.35416268 80.5208275 135.9375 79.4375 C136.72125 78.90125 137.505 78.365 138.3125 77.8125 C151.77083333 68.60416667 165.22916667 59.39583333 178.6875 50.1875 C177.6875 47.1875 177.6875 47.1875 175.47631836 45.79638672 C174.50315674 45.32475098 173.52999512 44.85311523 172.52734375 44.3671875 C171.9950415 44.10726517 171.46273926 43.84734283 170.91430664 43.57954407 C169.15700623 42.7277897 167.39205574 41.89381019 165.625 41.0625 C165.32163223 40.91827103 165.32163223 40.91827103 163.78640747 40.18838501 C122.07003062 20.40011924 76.62896259 9.05903083 30.6875 5.1875 C30.04635254 5.12965332 29.40520508 5.07180664 28.74462891 5.01220703 C-47.12000682 -1.62324125 -126.74813071 15.07133842 -252.29296875 102.2265625 Z " fill="#231815" transform="translate(411.3125,117.8125)"/>
</svg>
